<svg xmlns="http://www.w3.org/2000/svg" width="60" height="60" viewBox="0 0 60 60">
  <defs>
    <style>
      .cls-1 {
        fill: none;
        stroke: #535353;
        stroke-width: 2px;
        fill-rule: evenodd;
      }
    </style>
  </defs>
  <path id="RIGHT_BUTTON_LINK" class="cls-1" d="M1849,461h38a10,10,0,0,1,10,10v38a10,10,0,0,1-10,10h-38a10,10,0,0,1-10-10V471A10,10,0,0,1,1849,461Zm25.03,26.53a3.3,3.3,0,0,0-4.77,0l-8.24,8.52a3.568,3.568,0,0,0,0,4.933,3.3,3.3,0,0,0,4.77,0l8.24-8.52A3.568,3.568,0,0,0,1874.03,487.53Zm0,0-8.24-8.52a3.3,3.3,0,0,0-4.77,0,3.568,3.568,0,0,0,0,4.933l8.24,8.52a3.3,3.3,0,0,0,4.77,0A3.568,3.568,0,0,0,1874.03,487.53Z" transform="translate(-1838 -460)"/>
</svg>
